<?xml version="1.0" standalone="no"?><!DOCTYPE svg PUBLIC "-//W3C//DTD SVG 1.1//EN" "http://www.w3.org/Graphics/SVG/1.1/DTD/svg11.dtd"><svg t="1748603199942" class="icon" viewBox="0 0 1024 1024" version="1.1" xmlns="http://www.w3.org/2000/svg" p-id="12288" xmlns:xlink="http://www.w3.org/1999/xlink" width="200" height="200"><path d="M807.082667 656.384c4.608 1.450667 8.192 5.12 9.642666 9.813333l31.744 101.717334 104.618667 35.413333a15.104 15.104 0 0 1-0.597333 28.757333l-104.106667 30.976-33.962667 102.144a15.104 15.104 0 0 1-28.672-0.341333l-31.829333-101.632-101.290667-30.549333a15.104 15.104 0 0 1-0.682666-28.672L754.176 768l33.877333-102.229333a15.104 15.104 0 0 1 19.029334-9.472zM580.266667 102.144l8.362666 0.597333 8.533334 1.706667c27.221333 7.253333 44.970667 29.866667 41.472 51.456l-208.128 777.216c-5.973333 22.442667-33.877333 34.901333-62.634667 27.221333-27.136-7.253333-44.885333-29.866667-41.301333-51.541333l0.682666-3.584 207.36-773.632c4.181333-15.701333 19.114667-26.453333 37.546667-28.928l8.106667-0.512zM253.866667 295.424a51.2 51.2 0 0 1 23.04 85.76l-145.92 145.834667 145.834666 151.893333a51.2 51.2 0 1 1-72.533333 72.533333L19.285333 566.186667a51.2 51.2 0 0 1 0-72.533334l185.088-185.088a51.2 51.2 0 0 1 49.493334-13.226666z m518.4 32.938667l209.408 209.408a51.2 51.2 0 1 1-72.533334 72.533333L699.904 400.896a51.2 51.2 0 0 1 72.533333-72.533333z" fill="#25272F" p-id="12289"></path></svg>